<?xml version="1.0" encoding="UTF-8" standalone="no"?>
<!-- Generator: Adobe Illustrator 12.0.0, SVG Export Plug-In . SVG Version: 6.00 Build 51448)  -->

<svg
   xmlns:dc="http://purl.org/dc/elements/1.1/"
   xmlns:cc="http://creativecommons.org/ns#"
   xmlns:rdf="http://www.w3.org/1999/02/22-rdf-syntax-ns#"
   xmlns:svg="http://www.w3.org/2000/svg"
   xmlns="http://www.w3.org/2000/svg"
   xmlns:sodipodi="http://sodipodi.sourceforge.net/DTD/sodipodi-0.dtd"
   xmlns:inkscape="http://www.inkscape.org/namespaces/inkscape"
   version="1.1"
   id="INDIANAPOLIS_COLTS"
   width="187.039"
   height="200"
   viewBox="0 0 187.039 200"
   overflow="visible"
   enable-background="new 0 0 187.039 200"
   xml:space="preserve"
   inkscape:version="0.91 r13725"
   sodipodi:docname="colts.svg"><metadata
     id="metadata4179"><rdf:RDF><cc:Work
         rdf:about=""><dc:format>image/svg+xml</dc:format><dc:type
           rdf:resource="http://purl.org/dc/dcmitype/StillImage" /></cc:Work></rdf:RDF></metadata><defs
     id="defs4177"><filter
       style="color-interpolation-filters:sRGB;"
       inkscape:label="Greyscale"
       id="filter4283"><feColorMatrix
         values="0.21 0.72 0.072 10 0 0.21 0.72 0.072 10 0 0.21 0.72 0.072 10 0 0 0 0 1 0 "
         id="feColorMatrix4285"
         result="fbSourceGraphic" /><feColorMatrix
         result="fbSourceGraphicAlpha"
         in="fbSourceGraphic"
         values="0 0 0 -1 0 0 0 0 -1 0 0 0 0 -1 0 0 0 0 1 0"
         id="feColorMatrix4287" /><feColorMatrix
         id="feColorMatrix4289"
         values="0.21 0.72 0.072 10 0 0.21 0.72 0.072 10 0 0.21 0.72 0.072 10 0 0 0 0 1 0 "
         in="fbSourceGraphic" /></filter></defs><sodipodi:namedview
     pagecolor="#ffffff"
     bordercolor="#666666"
     borderopacity="1"
     objecttolerance="10"
     gridtolerance="10"
     guidetolerance="10"
     inkscape:pageopacity="0"
     inkscape:pageshadow="2"
     inkscape:window-width="1920"
     inkscape:window-height="1017"
     id="namedview4175"
     showgrid="false"
     inkscape:zoom="4.24"
     inkscape:cx="93.519501"
     inkscape:cy="100"
     inkscape:window-x="-8"
     inkscape:window-y="-8"
     inkscape:window-maximized="1"
     inkscape:current-layer="INDIANAPOLIS_COLTS" /><g
     id="g4137"
     style="filter:url(#filter4283)"><g
       id="g4139"><path
         fill="#023A79"
         d="M157.712,28.834c-3.548-4.967-2.133-7.601,0.34-7.951c1.716-0.244,3.767,0.014,4.832,0.014    c1.884,0,5.483,0.231,5.181-3.451c-0.348-4.14-1.207-8.11-2.246-12.94c-1.034-4.831-1.381-4.486-7.938-4.486    c0,0-1.205-0.172-11.213,0.517c-10.008,0.691-17.944,2.07-18.293,15.527c-0.343,13.46,2.765,17.947,8.286,26.573    c5.517,8.63,22.086,35.2,22.086,59.359c0,44.4-38.998,63.496-65.223,63.496c-26.229,0-65.227-19.096-65.227-63.496    c0-24.159,16.566-50.729,22.089-59.359c5.522-8.626,8.628-13.113,8.286-26.573C58.322,2.606,50.385,1.227,40.379,0.536    c-10.01-0.689-11.218-0.517-11.218-0.517c-6.559,0-6.901-0.345-7.94,4.486c-1.034,4.83-1.896,8.8-2.24,12.94    c-0.306,3.682,3.299,3.451,5.177,3.451c1.067,0,3.119-0.257,4.833-0.014c2.47,0.351,3.886,2.984,0.338,7.951    C15.07,48.803,0,73.513,0,103.027C0,151.688,41.756,200,93.522,200s93.517-48.313,93.517-96.973    C187.039,73.513,171.975,48.803,157.712,28.834z M143.732,32.331c-1.551,0-2.806-1.257-2.806-2.808    c0-1.548,1.255-2.806,2.806-2.806c1.547,0,2.808,1.257,2.808,2.806C146.54,31.074,145.279,32.331,143.732,32.331z M43.309,26.718    c1.548,0,2.805,1.257,2.805,2.806c0,1.55-1.257,2.808-2.805,2.808s-2.805-1.257-2.805-2.808    C40.504,27.975,41.761,26.718,43.309,26.718z M15.356,98.245c-1.545,0-2.806-1.257-2.806-2.806c0-1.552,1.26-2.808,2.806-2.808    c1.553,0,2.805,1.256,2.805,2.808C18.161,96.987,16.909,98.245,15.356,98.245z M29.161,153.805c-1.548,0-2.808-1.26-2.808-2.808    s1.259-2.806,2.808-2.806c1.551,0,2.805,1.258,2.805,2.806S30.712,153.805,29.161,153.805z M93.522,185.553    c-1.551,0-2.805-1.257-2.805-2.808c0-1.548,1.254-2.806,2.805-2.806c1.548,0,2.802,1.256,2.802,2.806    C96.325,184.296,95.07,185.553,93.522,185.553z M157.88,153.805c-1.551,0-2.805-1.26-2.805-2.808s1.254-2.806,2.805-2.806    c1.548,0,2.806,1.258,2.806,2.806S159.43,153.805,157.88,153.805z M171.688,98.245c-1.554,0-2.811-1.257-2.811-2.806    c0-1.552,1.257-2.808,2.811-2.808c1.543,0,2.806,1.256,2.806,2.808C174.494,96.987,173.23,98.245,171.688,98.245z"
         id="path4141" /></g><g
       id="g4143"><g
         id="g4145"><circle
           fill="#FFFFFF"
           cx="143.734"
           cy="29.524"
           r="2.806"
           id="circle4147" /><path
           fill="#FFFFFF"
           d="M143.732,29.524"
           id="path4149" /></g><circle
         fill="#FFFFFF"
         cx="43.309"
         cy="29.524"
         r="2.807"
         id="circle4151" /><g
         id="g4153"><path
           fill="#FFFFFF"
           d="M12.55,95.437c0-1.549,1.26-2.805,2.806-2.805c1.553,0,2.805,1.256,2.805,2.805     c0,1.551-1.252,2.808-2.805,2.808C13.811,98.245,12.55,96.987,12.55,95.437z"
           id="path4155" /><path
           fill="#FFFFFF"
           d="M15.356,95.437"
           id="path4157" /></g><circle
         fill="#FFFFFF"
         cx="29.161"
         cy="150.999"
         r="2.806"
         id="circle4159" /><circle
         fill="#FFFFFF"
         cx="93.522"
         cy="182.747"
         r="2.806"
         id="circle4161" /><g
         id="g4163"><circle
           fill="#FFFFFF"
           cx="157.88"
           cy="150.997"
           r="2.805"
           id="circle4165" /><path
           fill="#FFFFFF"
           d="M157.88,150.997"
           id="path4167" /></g><g
         id="g4169"><path
           fill="#FFFFFF"
           d="M168.878,95.437c0-1.549,1.257-2.805,2.812-2.805c1.547,0,2.805,1.256,2.805,2.805     c0,1.551-1.258,2.808-2.805,2.808C170.135,98.245,168.878,96.987,168.878,95.437z"
           id="path4171" /><path
           fill="#FFFFFF"
           d="M171.688,95.437"
           id="path4173" /></g></g></g></svg>